<svg xmlns="http://www.w3.org/2000/svg" version="1.1" xmlns:xlink="http://www.w3.org/1999/xlink"
    preserveAspectRatio="none" x="0px" y="0px" width="344px" height="164px" viewBox="0 0 344 164">
    <defs>
        <g id="Layer0_0_FILL">
            <path fill="#ffffff" stroke="none"
                d="
M 28 62.1
L 0.05 62.1 0.05 164.45 0 164.45 0 164.8 27.7 164.8 27.7 164.45 28 164.45 28 124.85
Q 28.4 111.65 37.9 110.8 48.4 109.95 48.7 121.25
L 48.7 164.45 77.15 164.45 77.15 111.85
Q 74.75 87.45 48.7 88.1 35.9 88.55 28 98.6
L 28 62.1
M 266.65 17.7
Q 265.6 16.95 264.15 18 262.65 19.05 263.35 21.05 263.5 21.5 264.15 22.25 264.8 23.05 264.7 23.4 264.65 23.75 264.45 24 264.25 24.25 263.7 24.2 263.15 24.1 261.95 22 260.75 19.85 259.75 19.85 258.8 19.85 257.95 20.7 257 21.55 257 22.4 257 23.05 258 23.6 258.55 23.9 259.4 24.35 259.55 24.5 260.5 25.05 261.4 25.7 261.55 26.4 261.65 27.15 260.85 27.15 260.05 27.15 259.6 26.8 259.15 26.45 258.4 26.45 257.65 26.45 257.25 26.75 256.85 27.05 257 28.35 257.1 29.65 258.15 30.15 259.15 30.65 260.5 29.9 261.8 29.2 262.95 29.3 264.05 29.35 264.5 29.65 264.95 29.95 265 31.5 265.05 33.0484375 260.2 40.5 238.1279296875 42.8080078125 228.75 37.35 228.344921875 37.19140625 227.95 37 228.0306640625 37.037109375 228.1 37.05 228.65 34.85 231.3 33.05 233.55 31.35 238.05 36.3 239.6 37.7 240.75 36.5 241.05 35.1 239.15 34.1 237.3 33.1 238.75 32.95 240.25 32.75 241.8 33.3 243.3 33.85 244.15 32.95 245 32.05 244.15 31 243.35 29.9 240.95 30.1 240.25 30.15 239.95 29.95 239.3 29.5 240.2 28.95 241.05 28.4 242.9 28.2 244.8 28 244.7 25.9 244.6 23.8 242.5 24.75
L 239.65 26.6
Q 238.3 27.25 238.3 25.8 238.95 24.7 239.95 24.2 240.95 23.7 240.85 22.65 240.75 21.55 239.15 21.55 235.7 22.55 235.55 25.05 235.35 27.55 232.3 27 229.2 26.35 227.55 28.2
L 223.75 31.55
Q 223.0591796875 31.9447265625 222.35 31.85 214.069140625 24.0861328125 209.95 20.5 209.3 19.55 211.2 18.5
L 220.45 14.3
Q 221.6 13.65 220.45 13.15
L 186.05 0.2
Q 184.3 -0.5 184.4 1.4
L 185.25 37.75
Q 185.3 39.5 186.35 38.5
L 193.7 31.25
Q 194.8 30 195.95 31.25
L 207.45 46.75
Q 205.9927734375 49.001171875 203.8 49.35 201.45 49.75 201.75 48.4 202 47.1 202.15 46.6 202.25 46.1 202.25 45.85 202.25 44.65 201.5 44 200.8 43.4 200.1 43.25 199.45 43.1 199.05 43.15 198.65 43.2 198.45 43.45 198.2 43.65 198 44.1 197.85 44.6 198.1 45.3 198.25 45.85 198.3 46 198.35 46.15 198.8 47 199.25 47.85 199.2 48.15 199.1 48.45 199 48.6 198.9 48.7 198.55 48.7 198.2 48.7 197.7 48.05 197.25 47.35 197.1 47 196.7 45.95 196 45 195.25 44 194.15 44.7 193.05 45.35 193.35 46.25 193.65 47.1 194.35 47.65 195 48.2 195.3 49 195.55 49.75 195.55 49.9 195.55 50.25 195.3 50.35 194.55 50.65 193.5 49.7 192.5 48.75 192.3 48.6 192.05 48.4 191.4 48.15 190.7 47.9 189.9 48.8 189.05 49.65 190.25 50.55 191.4 51.45 193.45 52.3 194.75 52.8 194.7 53.45 194.7 54.05 193 53.9 191.3 53.7 190.75 54.5 190.2 55.3 190.9 56 191.05 56.15 191.3 56.2 193.7 56.95 195.8 55.7 196.65 55.2 197.1 54.45 197.95 53.2 199.35 54 206.45 57.2 209.6 53.9 212.2 51.2 213.3 50.95
L 213.3 50.95
Q 224.3890625 62.3216796875 249.1 59.05 252.016015625 59.1052734375 252.65 63.25 253.35 68.1 258.5 72.55 259.95 73.8 259.05 75.1 258.1 76.4 258 78.45 257.9 80.5 259.4 81.85 260.9 83.15 261.3 81.7 261.75 80.25 261.6 79.6 261.5 78.95 261.3 77.9 261.1 76.9 261.7 76.65 262.3 76.35 262.6 76.75 262.9 77.1 262.95 77.65 262.95 78.2 262.95 78.7 262.95 78.8 262.95 78.95 262.95 79.55 263 80.45 263.1 82.7 264.5 83.1 265.85 83.5 266.65 82.75 267.5 81.95 267.35 80.7 267.15 79.65 266.6 78.8 266.4 78.5 266.2 78.25 266.15 78.2 266.15 78.15 265.5 77.25 265.5 76.9 265.5 76.55 265.9 76.15 266.05 76 266.2 76 266.85 75.75 267.85 77.15 268.85 78.55 269.8 78.8 270.75 79.05 271.15 78.55 271.6 78 271.7 77 271.8 75.95 270.65 75.15 269.5 74.4 268.95 74.15 268.4 73.85 268.2 73.5 268 73.15 268 73 268 72.9 268 72.7 268.05 72.25 268.4 72.25 268.85 72.25 270.35 72.3 271.85 72.35 272.25 71.55 272.65 70.7 272.1 69.7 271.4 68.6 269.5 69.25 268.05 69.8 266.55 70.1 264.15 70.9 263.3 69.15 262.4 66.3 262.3 61.65 262.2 57.2 263.05 56.85 272.8068359375 55.7126953125 284.3 64.75 284.65 65 284.95 65.25 291.2 70.3 297.9 78.25 297.7 76.9 297.4 75.55 297.35 75.5 297.35 75.4 291.9029296875 50.084765625 272.4 43
L 272.35 43
Q 271.05 42.1 271.05 41.4 271.05 40.7 272.05 36.65 273 32.55 269 25.8 269.55 24.2 271.05 23.95 272.15 23.75 272.6 22.45 273.45 20.35 271.9 19.45 270.4 18.55 269.35 19.4 269 19.7 268.75 20.4 268.5 21.05 268.35 21.75 268.15 22.45 267.75 22.4 267.3 22.4 267.2 22.1 267.05 21.8 267.05 21.35 267.05 20.85 267.4 19.65 267.7 18.45 266.65 17.7
M 276.25 56.05
Q 271.8 53.9 263 53.7 251.4 53.75 239.9 52.3 264.25 50.15 272.25 51.9 285.1 55.45 291 64.3 294.8 69.4 296.9 74.85 284.2 58.5 276.25 56.05
M 204.9 11.8
Q 204.9 13.4 203.65 14.5 202.4 15.65 201.3 15.6 200.2 15.55 199.65 15.7 199.15 15.9 206.1 25 213.1 34.05 216.9 37.15 230.55 48.25 249.55 48.65 242.9 49.4 234.7 48.1 209.25 44.5 186.5 2.5
L 199.9 7.8
Q 199.2 7.95 198.7 8.4 198.6 8.5 198.55 8.55 197.7 9.4 197.7 10.65 197.7 11.85 198.55 12.7 199.35 13.55 200.55 13.55 201.75 13.55 202.6 12.7 203.3 12.05 203.4 11.15
L 204.9 11.7
Q 204.9 11.75 204.9 11.8
M 192.15 23.05
Q 190.55 23.95 188.85 23.25 187.45 22.2 188.85 22.15 190.15 22.25 191.2 21.75 192.25 21.2 191.55 19.35 190.85 17.5 188.4 17.5 189.35 15.85 191.4 17.25 193.45 18.6 193.6 20.35 193.75 22.1 192.15 23.05
M 342.85 164.45
L 342.85 90 314.45 90 314.45 164.45 342.85 164.45
M 166.95 164.45
L 166.95 111.85
Q 164.5 87.45 138.5 88.1 125.7 88.55 117.8 98.6
L 117.8 62.1 89.85 62.1 89.85 164.45 117.8 164.45 117.8 124.85
Q 118.2 111.65 127.7 110.8 138.2 109.95 138.5 121.25
L 138.5 164.45 166.95 164.45
M 289.45 90.7
Q 278.25 86.25 267.6 89.05 257 91.8 251.3 99.7 246.2 88.75 231.5 88.15 216.85 87.5 206.8 99.55
L 206.8 90.25 179.25 90.25 179.25 164.45 207.6 164.45 207.6 124.85
Q 208 111.65 216.6 110.8 222.65 110.3 224.95 114.5 226.35 117 226.65 121.3
L 226.65 164.45 254.85 164.45 254.85 124.05
Q 255.25 111.2 263.95 110.75 269.95 110.25 272.3 114.45 273.65 116.95 273.95 121.25
L 273.95 164.45 302.2 164.45 302.2 116.8
Q 302.2 113.95 302.05 111.15 301.95 109.55 301.7 107.95 301.45 106.45 301.15 105 298.3 94.15 289.45 90.7
M 339.7 65.35
Q 335.15 60.85 328.7 60.85 322.2 60.85 317.65 65.35 313.1 69.85 313.1 76.25 313.1 78.6 313.7 80.7
L 343.65 80.7
Q 344.25 78.6 344.25 76.25 344.25 69.85 339.7 65.35 Z" />
        </g>
    </defs>

    <g transform="matrix( 1, 0, 0, 1, 0,0) ">
        <use xlink:href="#Layer0_0_FILL" />
    </g>
</svg>