
<svg xmlns="http://www.w3.org/2000/svg" version="1.1" xmlns:xlink="http://www.w3.org/1999/xlink" preserveAspectRatio="none" x="0px" y="0px" width="289px" height="212px" viewBox="0 0 289 212">
<defs>
<g id="lizard_copy_2_0_Layer0_0_FILL">
<path fill="#000000" stroke="none" d="
M 210 45.55
Q 207.25 43.7 203.55 46.35 199.8 49 201.55 54.15 202 55.2 203.65 57.2 205.25 59.15 205.05 60.1 204.85 61 204.35 61.65 203.8 62.3 202.45 62.05 201.05 61.8 198.05 56.45 195 51.05 192.4 51.05 190 51.05 187.75 53.2 185.45 55.35 185.45 57.55 185.45 59.15 187.95 60.6 189.3 61.35 191.45 62.55 191.85 62.85 194.3 64.3 196.55 65.9 196.95 67.75 197.3 69.6 195.2 69.6 193.1 69.6 192 68.75 190.85 67.85 188.95 67.85 187 67.85 186 68.6 185 69.35 185.35 72.7 185.7 76 188.3 77.3 190.85 78.55 194.25 76.7 197.65 74.85 200.55 75.05 203.4 75.25 204.5 76.05 205.6 76.8 205.75 80.7 205.9 84.6 193.5 103.75 137.2611328125 109.48984375 113.45 95.6 112.5724609375 95.2580078125 111.7 94.9 111.76796875 94.9 111.8 94.9 113.2 89.3 119.95 84.6 125.6 80.3 137.1 92.9 141.05 96.5 144 93.5 144.75 89.95 139.95 87.4 135.15 84.85 138.95 84.35 142.7 83.85 146.6 85.3 150.5 86.7 152.65 84.45 154.8 82.15 152.7 79.4 150.55 76.6 144.5 77.1 142.7 77.25 141.95 76.75 140.35 75.65 142.55 74.25 144.7 72.8 149.5 72.3 154.25 71.75 154.05 66.45 153.8 61.15 148.4 63.5
L 141.15 68.2
Q 137.8 69.9 137.7 66.25 139.45 63.45 142 62.15 144.55 60.8 144.3 58.1 144 55.4 139.95 55.4 131.1 57.9 130.7 64.3 130.25 70.7 122.4 69.2 114.55 67.6 110.3 72.35
L 100.7 80.8
Q 98.9068359375 81.8958984375 97.05 81.55 76.0087890625 61.8498046875 65.55 52.65 63.85 50.3 68.65 47.6
L 92.25 36.85
Q 95.15 35.2 92.25 33.95
L 4.6 0.9
Q 0.2 -0.8 0.4 4.05
L 2.55 96.65
Q 2.75 101.15 5.4 98.6
L 24.05 80.1
Q 26.95 76.9 29.8 80.1
L 59.1 119.6
Q 55.5 125.35 49.8 126.25 43.8 127.2 44.55 123.8 45.3 120.4 45.6 119.2 45.9 117.95 45.9 117.25 45.9 114.2 43.95 112.55 42.15 111 40.45 110.65 38.75 110.3 37.75 110.45 36.75 110.55 36.15 111.1 35.5 111.65 35.1 112.85 34.65 114.05 35.25 115.9 35.7 117.3 35.85 117.7 36 118.1 37.15 120.25 38.3 122.4 38.1 123.15 37.9 123.85 37.6 124.25 37.3 124.6 36.4 124.6 35.5 124.6 34.3 122.9 33.1 121.15 32.7 120.15 31.75 117.5 29.9 115.05 28.05 112.55 25.25 114.3 22.4 116.05 23.2 118.25 23.95 120.4 25.7 121.85 27.45 123.25 28.15 125.3 28.85 127.25 28.85 127.6 28.85 128.55 28.2 128.8 26.25 129.55 23.65 127.1 21.05 124.65 20.5 124.25 19.9 123.8 18.25 123.2 16.5 122.55 14.4 124.8 12.3 127 15.3 129.3 18.25 131.6 23.5 133.7 26.75 135 26.7 136.6 26.6 138.2 22.3 137.75 17.95 137.25 16.55 139.3 15.15 141.3 17 143.2 17.35 143.55 17.95 143.65 24.1 145.6 29.5 142.35 31.55 141.15 32.8 139.2 34.9 135.95 38.45 138.1 56.6 146.15 64.65 137.75 71.2 130.9 74.1 130.3 102.261328125 159.066015625 164.65 150.95 164.7759765625 150.95 164.9 150.95 172.6 150.75 174.3 161.65 176.15 173.95 189.2 185.35 192.95 188.55 190.6 191.85 188.2 195.1 187.95 200.35 187.7 205.55 191.5 208.95 195.3 212.3 196.4 208.6 197.45 204.9 197.15 203.3 196.85 201.65 196.35 199 195.85 196.35 197.4 195.7 198.9 195 199.7 195.95 200.45 196.85 200.5 198.35 200.5 199.65 200.55 201 200.55 201.3 200.55 201.6 200.6 203.2 200.7 205.4 200.9 211.2 204.45 212.2 207.95 213.2 209.95 211.3 212.2 209.2 211.75 206.1 211.25 203.4 209.8 201.2 209.3 200.5 208.85 199.85 208.75 199.7 208.7 199.6 207.1 197.35 207.05 196.4 207 195.45 208.1 194.5 208.4 194.15 208.85 194.1 210.45 193.45 213.05 197.05 215.55 200.65 218 201.25 220.4 201.85 221.5 200.55 222.6 199.2 222.85 196.6 223.05 193.95 220.15 192 217.2 190 215.85 189.35 214.45 188.65 213.95 187.75 213.45 186.8 213.45 186.5 213.4 186.15 213.4 185.7 213.6 184.6 214.45 184.55 215.55 184.5 219.4 184.65 223.2 184.8 224.25 182.7 225.3 180.55 223.85 178.1 222.1 175.3 217.3 176.95 213.55 178.3 209.7 179.1 203.65 181.1 201.4 176.65 199.1 169.35 198.9 157.6 198.7 146.15 200.75 145.35
L 200.75 145.3
Q 225.6419921875 142.47421875 255 165.45 255.8 166.1 256.6 166.75 272.5 179.55 289.65 199.85 289.05 196.35 288.3 193 288.25 192.8 288.25 192.6
L 288.25 192.55
Q 274.3603515625 127.966796875 224.45 110 221.2 107.730078125 221.2 105.95 221.2 104.1 223.7 93.8 226.1 83.45 215.95 66.2 217.4 62.05 221.25 61.5 223.95 60.95 225.2 57.65 227.25 52.35 223.4 50.05 219.5 47.7 216.8 49.9 215.95 50.7 215.35 52.45 214.65 54.15 214.25 55.9 213.85 57.6 212.75 57.55 211.65 57.5 211.4 56.75 211.05 55.95 211.05 54.8 211 53.6 211.85 50.5 212.7 47.4 210 45.55
M 234.45 143.25
Q 223.1 137.75 200.7 137.25 171.15 137.35 141.85 133.75 203.8 128.25 224.25 132.75 257 141.7 272.05 164.25 281.75 177.25 287.1 191.2 254.75 149.5 234.45 143.25
M 41.6 35
Q 44.65 35 46.8 32.8 48.5 31.1 48.85 28.85
L 52.65 30.3
Q 52.65 30.35 52.65 30.5 52.65 34.6 49.4 37.45 46.3 40.35 43.5 40.2 40.65 40.05 39.3 40.5 37.95 40.95 55.75 64.1 73.55 87.25 83.25 95.1 117.95 123.4 166.4 124.4 149.45 126.35 128.6 123.05 63.75 113.85 5.8 6.85
L 39.9 20.3
Q 38.15 20.65 36.8 21.9 36.6 22.05 36.4 22.25 34.3 24.45 34.3 27.55 34.3 30.65 36.4 32.8 38.55 35 41.6 35
M 10.65 45
Q 13.05 40.9 18.25 44.4 23.45 47.85 23.85 52.35 24.25 56.8 20.2 59.15 16.1 61.5 11.7 59.7 8.15 57 11.7 56.95 15 57.2 17.7 55.85 20.4 54.5 18.65 49.75 16.85 45 10.65 45 Z"/>
</g>
</defs>

<g transform="matrix( 1, 0, 0, 1, -0.4,-0.45) ">
<g transform="matrix( 1, 0, 0, 1, 0,0) ">
<use xlink:href="#lizard_copy_2_0_Layer0_0_FILL"/>
</g>
</g>
</svg>
