
<svg xmlns="http://www.w3.org/2000/svg" version="1.1" xmlns:xlink="http://www.w3.org/1999/xlink" preserveAspectRatio="none" x="0px" y="0px" width="289px" height="212px" viewBox="0 0 289 212">
<defs>
<linearGradient id="Gradient_1" gradientUnits="userSpaceOnUse" x1="-0.025000000000005684" y1="99.7" x2="289.225" y2="99.7" spreadMethod="pad">
<stop  offset="0%" stop-color="#068D95"/>

<stop  offset="100%" stop-color="#8BC347"/>
</linearGradient>

<linearGradient id="Gradient_2" gradientUnits="userSpaceOnUse" x1="-0.025000000000005684" y1="106.05" x2="289.225" y2="106.05" spreadMethod="pad">
<stop  offset="0%" stop-color="#068D95"/>

<stop  offset="100%" stop-color="#8BC347"/>
</linearGradient>

<g id="lizard_0_Layer4_0_FILL">
<path fill="url(#Gradient_1)" stroke="none" d="
M 170.25 149.65
L 199.45 145
Q 224.7 141.6 254.6 165 255.4 165.65 256.2 166.3 272.1 179.1 289.25 199.4 288.65 195.9 287.9 192.55 287.85 192.35 287.85 192.15
L 287.85 192.1
Q 270.15 109.8 194 103.2 137.05 109.15 113.05 95.15 104.2 91.7 99.5 86.65 97.55 84.6 98.05 82.4 75.95 61.7 65.15 52.2 63.45 49.85 68.25 47.15
L 91.85 36.4
Q 94.75 34.75 91.85 33.5
L 4.2 0.45
Q -0.2 -1.25 0 3.6
L 2.15 96.2
Q 2.35 100.7 5 98.15
L 23.65 79.65
Q 26.55 76.45 29.4 79.65
L 59.6 120.35 72.2 128.25
Q 101.45 160.25 170.25 149.65
M 234.05 142.8
Q 222.7 137.3 200.3 136.8 170.75 136.9 141.45 133.3 203.4 127.8 223.85 132.3 256.6 141.25 271.65 163.8 281.35 176.8 286.7 190.75 254.35 149.05 234.05 142.8
M 49 37
Q 45.9 39.9 43.1 39.75 40.25 39.6 38.9 40.05 37.55 40.5 55.35 63.65 73.15 86.8 82.85 94.65 117.55 122.95 166 123.95 149.05 125.9 128.2 122.6 63.35 113.4 5.4 6.4
L 39.5 19.85
Q 37.75 20.2 36.4 21.45 36.2 21.6 36 21.8 33.9 24 33.9 27.1 33.9 30.2 36 32.35 38.15 34.55 41.2 34.55 44.25 34.55 46.4 32.35 48.1 30.65 48.45 28.4
L 52.25 29.85
Q 52.25 29.9 52.25 30.05 52.25 34.15 49 37
M 18.25 49.3
Q 16.45 44.55 10.25 44.55 12.65 40.45 17.85 43.95 23.05 47.4 23.45 51.9 23.85 56.35 19.8 58.7 15.7 61.05 11.3 59.25 7.75 56.55 11.3 56.5 14.6 56.75 17.3 55.4 20 54.05 18.25 49.3 Z"/>
</g>

<g id="lizard_0_Layer3_0_FILL">
<path fill="url(#Gradient_2)" stroke="none" d="
M 100.3 80.35
Q 98.5 81.45 96.65 81.1 95.8 80.9 95 80.45 90.25 90.45 111.3 94.45 111.35 94.45 111.4 94.45 112.8 88.85 119.55 84.15 125.2 79.85 136.7 92.45 140.65 96.05 143.6 93.05 144.35 89.5 139.55 86.95 134.75 84.4 138.55 83.9 142.3 83.4 146.2 84.85 150.1 86.25 152.25 84 154.4 81.7 152.3 78.95 150.15 76.15 144.1 76.65 142.3 76.8 141.55 76.3 139.95 75.2 142.15 73.8 144.3 72.35 149.1 71.85 153.85 71.3 153.65 66 153.4 60.7 148 63.05
L 140.75 67.75
Q 137.4 69.45 137.3 65.8 139.05 63 141.6 61.7 144.15 60.35 143.9 57.65 143.6 54.95 139.55 54.95 130.702734375 57.440625 130.25 63.85 129.83984375 70.2720703125 122 68.7 114.1625 67.1701171875 109.9 71.9
L 100.3 80.35 Z"/>
</g>

<g id="lizard_0_Layer2_0_FILL">
<path fill="url(#Gradient_2)" stroke="none" d="
M 209.6 45.1
Q 206.85 43.25 203.15 45.9 199.4 48.55 201.15 53.7 201.6 54.75 203.25 56.75 204.85 58.7 204.65 59.65 204.45 60.55 203.95 61.2 203.4 61.85 202.05 61.6 200.65 61.35 197.65 56 194.6 50.6 192 50.6 189.6 50.6 187.35 52.75 185.05 54.9 185.05 57.1 185.05 58.7 187.55 60.15 188.9 60.9 191.05 62.1 191.45 62.4 193.9 63.85 196.15 65.45 196.55 67.3 196.9 69.15 194.8 69.15 192.7 69.15 191.6 68.3 190.45 67.4 188.55 67.4 186.6 67.4 185.6 68.15 184.6 68.9 184.95 72.25 185.3 75.55 187.9 76.85 190.45 78.1 193.85 76.25 197.25 74.4 200.15 74.6 203 74.8 204.1 75.6 205.2 76.35 205.35 80.25 205.5 84.15 193.1 103.3
L 193.05 103.35
Q 206.5 115.05 224.25 109.65 224.2 109.6 224.15 109.6 220.8 107.3 220.8 105.5 220.8 103.65 223.3 93.35 225.7 83 215.55 65.75 217 61.6 220.85 61.05 223.55 60.5 224.8 57.2 226.85 51.9 223 49.6 219.1 47.25 216.4 49.45 215.55 50.25 214.95 52 214.25 53.7 213.85 55.45 213.45 57.15 212.35 57.1 211.25 57.05 211 56.3 210.65 55.5 210.65 54.35 210.6 53.15 211.45 50.05 212.3 46.95 209.6 45.1 Z"/>
</g>

<g id="lizard_0_Layer1_0_FILL">
<path fill="url(#Gradient_2)" stroke="none" d="
M 200.35 144.9
Q 200.4 144.85 200.45 144.85 179.1 128.25 163.4 150.55 163.95 150.5 164.5 150.5 172.2 150.3 173.9 161.2 175.75 173.5 188.8 184.9 192.55 188.1 190.2 191.4 187.8 194.65 187.55 199.9 187.3 205.1 191.1 208.5 194.9 211.85 196 208.15 197.05 204.45 196.75 202.85 196.45 201.2 195.95 198.55 195.45 195.9 197 195.25 198.5 194.55 199.3 195.5 200.05 196.4 200.1 197.9 200.1 199.2 200.15 200.55 200.15 200.85 200.15 201.15 200.2 202.75 200.3 204.95 200.5 210.75 204.05 211.75 207.55 212.75 209.55 210.85 211.8 208.75 211.35 205.65 210.85 202.95 209.4 200.75 208.9 200.05 208.45 199.4 208.35 199.25 208.3 199.15 206.7 196.9 206.65 195.95 206.6 195 207.7 194.05 208 193.7 208.45 193.65 210.05 193 212.65 196.6 215.15 200.2 217.6 200.8 220 201.4 221.1 200.1 222.2 198.75 222.45 196.15 222.65 193.5 219.75 191.55 216.8 189.55 215.45 188.9 214.05 188.2 213.55 187.3 213.05 186.35 213.05 186.05 213 185.7 213 185.25 213.2 184.15 214.05 184.1 215.15 184.05 219 184.2 222.8 184.35 223.85 182.25 224.9 180.1 223.45 177.65 221.7 174.85 216.9 176.5 213.15 177.85 209.3 178.65 203.25 180.65 201 176.2 198.7 168.9 198.5 157.15 198.3 145.7 200.35 144.9 Z"/>
</g>

<g id="lizard_0_Layer0_0_FILL">
<path fill="url(#Gradient_2)" stroke="none" d="
M 45.5 116.8
Q 45.5 113.75 43.55 112.1 41.75 110.55 40.05 110.2 38.35 109.85 37.35 110 36.35 110.1 35.75 110.65 35.1 111.2 34.7 112.4 34.25 113.6 34.85 115.45 35.3 116.85 35.45 117.25 35.6 117.65 36.75 119.8 37.9 121.95 37.7 122.7 37.5 123.4 37.2 123.8 36.9 124.15 36 124.15 35.1 124.15 33.9 122.45 32.7 120.7 32.3 119.7 31.35 117.05 29.5 114.6 27.65 112.1 24.85 113.85 22 115.6 22.8 117.8 23.55 119.95 25.3 121.4 27.05 122.8 27.75 124.85 28.45 126.8 28.45 127.15 28.45 128.1 27.8 128.35 25.85 129.1 23.25 126.65 20.65 124.2 20.1 123.8 19.5 123.35 17.85 122.75 16.1 122.1 14 124.35 11.9 126.55 14.9 128.85 17.85 131.15 23.1 133.25 26.35 134.55 26.3 136.15 26.2 137.75 21.9 137.3 17.55 136.8 16.15 138.85 14.75 140.85 16.6 142.75 16.95 143.1 17.55 143.2 23.7 145.15 29.1 141.9 31.15 140.7 32.4 138.75 34.5 135.5 38.05 137.65 56.2 145.7 64.25 137.3 70.8 130.45 73.7 129.85 74.35 129.7 74.85 129.9 71.35 119.75 59.1 118.5 58.9 118.85 58.7 119.15 55.1 124.9 49.4 125.8 43.4 126.75 44.15 123.35 44.9 119.95 45.2 118.75 45.5 117.5 45.5 116.8 Z"/>
</g>
</defs>

<g transform="matrix( 1, 0, 0, 1, 0,0) ">
<g transform="matrix( 1, 0, 0, 1, 0,0) ">
<use xlink:href="#lizard_0_Layer4_0_FILL"/>
</g>

<g transform="matrix( 1, 0, 0, 1, 0,0) ">
<use xlink:href="#lizard_0_Layer3_0_FILL"/>
</g>

<g transform="matrix( 1, 0, 0, 1, 0,0) ">
<use xlink:href="#lizard_0_Layer2_0_FILL"/>
</g>

<g transform="matrix( 1, 0, 0, 1, 0,0) ">
<use xlink:href="#lizard_0_Layer1_0_FILL"/>
</g>

<g transform="matrix( 1, 0, 0, 1, 0,0) ">
<use xlink:href="#lizard_0_Layer0_0_FILL"/>
</g>
</g>
</svg>
