<svg xmlns="http://www.w3.org/2000/svg" version="1.1" xmlns:xlink="http://www.w3.org/1999/xlink"
    preserveAspectRatio="none" x="0px" y="0px" width="89px" height="96px" viewBox="0 0 89 96">
    <defs>
        <g id="Layer0_0_MEMBER_0_MEMBER_0_FILL">
            <path fill="#178387" stroke="none"
                d="
M 80 30
Q 80 20 70 20
L 20 20
Q 10 20 10 30
L 10 60
Q 10 70 20 70
L 50 70 60 80 60 70 70 70
Q 80 70 80 60
L 80 30 Z" />
        </g>

        <g id="Layer0_0_MEMBER_1_FILL">
            <path fill="#FFFFFF" stroke="none"
                d="
M 60.95 44.6
L 54.45 44.6 54.45 51.1 60.95 51.1 60.95 44.6
M 34.85 44.6
L 28.35 44.6 28.35 51.1 34.85 51.1 34.85 44.6
M 47.9 44.6
L 41.4 44.6 41.4 51.1 47.9 51.1 47.9 44.6 Z" />
        </g>

        <path id="Layer0_0_MEMBER_0_MEMBER_0_1_STROKES" stroke="#178387" stroke-width="9"
            stroke-linejoin="round" stroke-linecap="round" fill="none"
            d="
M 50 70
L 60 80 60 70 70 70
Q 80 70 80 60
L 80 30
Q 80 20 70 20
L 20 20
Q 10 20 10 30
L 10 60
Q 10 70 20 70
L 50 70 Z" />

        <path id="Layer0_0_MEMBER_0_MEMBER_1_1_STROKES" stroke="#FFFFFF" stroke-width="3"
            stroke-linejoin="round" stroke-linecap="round" fill="none"
            d="
M 60 80
L 50 70 20 70
Q 10 70 10 60
L 10 30
Q 10 20 20 20
L 70 20
Q 80 20 80 30
L 80 60
Q 80 70 70 70
L 60 70 60 80 Z" />
    </defs>

    <g transform="matrix( 1, 0, 0, 1, -0.25,2) ">
        <use xlink:href="#Layer0_0_MEMBER_0_MEMBER_0_FILL" />

        <use xlink:href="#Layer0_0_MEMBER_0_MEMBER_0_1_STROKES" />
    </g>

    <g transform="matrix( 1, 0, 0, 1, -0.25,2) ">
        <use xlink:href="#Layer0_0_MEMBER_0_MEMBER_1_1_STROKES" />
    </g>

    <g transform="matrix( 1, 0, 0, 1, 0.1,0) ">
        <use xlink:href="#Layer0_0_MEMBER_1_FILL" />
    </g>
</svg>