<svg xmlns="http://www.w3.org/2000/svg" version="1.1" xmlns:xlink="http://www.w3.org/1999/xlink"
    preserveAspectRatio="none" x="0px" y="0px" width="89px" height="96px" viewBox="0 0 89 96">
    <defs>
        <g id="Layer0_0_FILL">
            <path fill="#FFFFFF" stroke="none"
                d="
M 35.15 85.2
Q 35.956640625 86.856640625 37.35 88.25 40.55 91.45 45.05 91.45 49.55 91.45 52.7 88.3
L 52.75 88.25
Q 54.180859375 86.8419921875 54.95 85.15 49.975390625 85.55078125 44.7 85.55 39.8140625 85.5486328125 35.15 85.2 Z" />

            <path fill="#178387" stroke="none"
                d="
M 87.35 73.35
Q 87.3625 72.5 87.35 71.6 87.2734375 71.221484375 87.15 70.8 87.0513671875 70.4642578125 86.9 70.15 86.568359375 69.2587890625 86 68.55 85.405859375 67.8052734375 84.55 67.25 84.31796875 67.06328125 84 66.9 82.30234375 65.9515625 80.95 64.6 80.617578125 64.2728515625 80.3 63.95 80.0025390625 63.5736328125 79.65 63.2 79.291015625 62.758984375 78.9 62.3 78.8884765625 62.273828125 78.85 62.2 78.8125 62.175 78.75 62.1 78.7494140625 62.087890625 78.7 62.05 76.958984375 59.468359375 76.2 56.5
L 76.15 56.35
Q 75.5431640625 54.0859375 75.55 51.5 75.5478515625 50.815234375 75.6 50.15 75.93203125 48.3353515625 76.15 46.35 76.1625 46.23359375 76.15 46.1 76.2978515625 44.6125 76.3 43.1 76.3015625 30.0052734375 67.05 20.75 62.99375 16.689453125 58.15 14.4 57.9390625 9.3328125 54.35 5.65 54.30078125 5.5990234375 54.25 5.55 50.3126953125 1.7126953125 44.75 1.7 39.1873046875 1.7126953125 35.25 5.55 35.1990234375 5.5990234375 35.15 5.65 31.5673828125 9.3259765625 31.3 14.4 26.4669921875 16.687109375 22.4 20.75 13.1482421875 30.0052734375 13.15 43.1 13.1521484375 44.6125 13.25 46.1 13.2873046875 46.23359375 13.3 46.35 13.503125 48.201171875 13.8 49.9 13.809765625 49.9880859375 13.8 50.05 13.901953125 50.777734375 13.9 51.5 13.896875 54.1376953125 13.3 56.45
L 13.3 56.4
Q 12.51953125 59.4306640625 10.7 62.05 10.69921875 62.08203125 10.65 62.1 10.0064453125 62.939453125 9.3 63.7 9.23359375 63.8150390625 9.15 63.9 8.8404296875 64.265625 8.5 64.6 7.1572265625 65.94296875 5.45 66.9
L 5.4 66.9
Q 4.5958984375 67.3927734375 3.95 68
L 3.2 68.95
Q 2.852734375 69.510546875 2.6 70.1 2.52734375 70.2998046875 2.45 70.45
L 2.35 70.8
Q 1.7125 73.046484375 2.6 75.1 3.00390625 76.0619140625 3.6 76.8
L 4.5 77.65 5.25 78.15
Q 5.790625 78.5029296875 6.4 78.7 19.3109375 84.002734375 35.15 85.2 39.8140625 85.5486328125 44.7 85.55 49.975390625 85.55078125 54.95 85.15 70.4958984375 83.88203125 83.2 78.65
L 83.35 78.6
Q 84.4962890625 78.167578125 85.35 77.35 85.7314453125 76.9908203125 86.05 76.55
L 86.3 76.15
Q 86.4681640625 75.9626953125 86.6 75.7 87.2330078125 74.5802734375 87.35 73.35
M 44.75 8.2
Q 47.65 8.2 49.7 10.2 51.7 12.25 51.7 15.15 51.7 17.05 50.85 18.6 50.8 18.7 50.75 18.75 57.35 20.25 62.45 25.35 69.8 32.7 69.8 43.1 69.8 43.9 69.75 44.7 69.75 45.15 69.7 45.6 69.5 47.35 69.2 48.95 69.05 50.2 69.05 51.5 69.05 55 69.9 58.1 71 62.4 73.65 66.1 74.25 66.85 74.85 67.6 75.15 67.9 75.4 68.2 75.85 68.7 76.35 69.2 78.35 71.2 80.9 72.6 69 77.4 54.5 78.65 49.75 79.05 44.7 79.05 40.05 79.05 35.6 78.7 20.75 77.55 8.6 72.6 11.1 71.2 13.1 69.2 13.65 68.65 14.15 68.05 15 67.1 15.8 66.1 18.45 62.4 19.6 58.1 20.4 55 20.4 51.5 20.4 50.2 20.25 48.95 19.95 47.35 19.75 45.6 19.7 45.15 19.7 44.7 19.65 43.9 19.65 43.1 19.65 32.7 27 25.35 32.1 20.25 38.75 18.7 38.7 18.65 38.7 18.6 37.8 17.1 37.8 15.15 37.8 12.25 39.8 10.2 41.85 8.2 44.75 8.2
M 49.7 10.2
Q 47.65 8.2 44.75 8.2 41.85 8.2 39.8 10.2 37.8 12.25 37.8 15.15 37.8 17.1 38.7 18.6 38.7 18.65 38.75 18.7 32.1 20.25 27 25.35 19.65 32.7 19.65 43.1 19.65 43.9 19.7 44.7 19.7 45.15 19.75 45.6 19.95 47.35 20.25 48.95 20.4 50.2 20.4 51.5 20.4 55 19.6 58.1 18.45 62.4 15.8 66.1 15 67.1 14.15 68.05 13.65 68.65 13.1 69.2 11.1 71.2 8.6 72.6 20.75 77.55 35.6 78.7 40.05 79.05 44.7 79.05 49.75 79.05 54.5 78.65 69 77.4 80.9 72.6 78.35 71.2 76.35 69.2 75.85 68.7 75.4 68.2 75.15 67.9 74.85 67.6 74.25 66.85 73.65 66.1 71 62.4 69.9 58.1 69.05 55 69.05 51.5 69.05 50.2 69.2 48.95 69.5 47.35 69.7 45.6 69.75 45.15 69.75 44.7 69.8 43.9 69.8 43.1 69.8 32.7 62.45 25.35 57.35 20.25 50.75 18.75 50.8 18.7 50.85 18.6 51.7 17.05 51.7 15.15 51.7 12.25 49.7 10.2
M 47.2 15.25
Q 47.2 16.3 46.5 17 45.75 17.7 44.75 17.7 43.7 17.7 43 17 42.3 16.3 42.3 15.25 42.3 14.2 43 13.5 43.7 12.8 44.75 12.8 45.75 12.8 46.5 13.5 47.2 14.2 47.2 15.25
M 37.8 72.6
Q 25.95 71.95 15.8 68.9 25.95 71.95 37.8 72.6 41.2 72.8 44.7 72.8 48.55 72.8 52.3 72.55 63.75 71.85 73.65 68.9 63.75 71.85 52.3 72.55 48.55 72.8 44.7 72.8 41.2 72.8 37.8 72.6
M 46.5 17
Q 47.2 16.3 47.2 15.25 47.2 14.2 46.5 13.5 45.75 12.8 44.75 12.8 43.7 12.8 43 13.5 42.3 14.2 42.3 15.25 42.3 16.3 43 17 43.7 17.7 44.75 17.7 45.75 17.7 46.5 17 Z" />
        </g>

        <path id="Layer0_0_1_STROKES" stroke="#FFFFFF" stroke-width="3" stroke-linejoin="round"
            stroke-linecap="round" fill="none"
            d="
M 50.75 18.75
Q 57.35 20.25 62.45 25.35 69.8 32.7 69.8 43.1 69.8 43.9 69.75 44.7 69.75 45.15 69.7 45.6 69.5 47.35 69.2 48.95 69.05 50.2 69.05 51.5 69.05 55 69.9 58.1 71 62.4 73.65 66.1 74.25 66.85 74.85 67.6 75.15 67.9 75.4 68.2 75.85 68.7 76.35 69.2 78.35 71.2 80.9 72.6 69 77.4 54.5 78.65 49.75 79.05 44.7 79.05 40.05 79.05 35.6 78.7 20.75 77.55 8.6 72.6 11.1 71.2 13.1 69.2 13.65 68.65 14.15 68.05 15 67.1 15.8 66.1 18.45 62.4 19.6 58.1 20.4 55 20.4 51.5 20.4 50.2 20.25 48.95 19.95 47.35 19.75 45.6 19.7 45.15 19.7 44.7 19.65 43.9 19.65 43.1 19.65 32.7 27 25.35 32.1 20.25 38.75 18.7 38.7 18.65 38.7 18.6 37.8 17.1 37.8 15.15 37.8 12.25 39.8 10.2 41.85 8.2 44.75 8.2 47.65 8.2 49.7 10.2 51.7 12.25 51.7 15.15 51.7 17.05 50.85 18.6 50.8 18.7 50.75 18.75 Z
M 73.65 68.9
Q 63.75 71.85 52.3 72.55 48.55 72.8 44.7 72.8 41.2 72.8 37.8 72.6 25.95 71.95 15.8 68.9" />

        <path id="Layer0_0_2_STROKES" stroke="#178387" stroke-width="3" stroke-linejoin="round"
            stroke-linecap="round" fill="none"
            d="
M 54.95 85.15
Q 54.180859375 86.8419921875 52.75 88.25
L 52.7 88.3
Q 49.55 91.45 45.05 91.45 40.55 91.45 37.35 88.25 35.956640625 86.856640625 35.175 85.2" />

        <path id="Layer0_0_3_STROKES" stroke="#FFFFFF" stroke-width="1" stroke-linejoin="round"
            stroke-linecap="round" fill="none"
            d="
M 47.2 15.25
Q 47.2 16.3 46.5 17 45.75 17.7 44.75 17.7 43.7 17.7 43 17 42.3 16.3 42.3 15.25 42.3 14.2 43 13.5 43.7 12.8 44.75 12.8 45.75 12.8 46.5 13.5 47.2 14.2 47.2 15.25 Z" />
    </defs>

    <g transform="matrix( 1, 0, 0, 1, 0,0) ">
        <use xlink:href="#Layer0_0_FILL" />

        <use xlink:href="#Layer0_0_1_STROKES" />

        <use xlink:href="#Layer0_0_2_STROKES" />

        <use xlink:href="#Layer0_0_3_STROKES" />
    </g>
</svg>