<?xml version="1.0" encoding="utf-8"?>
<!-- Generator: Adobe Illustrator 20.1.0, SVG Export Plug-In . SVG Version: 6.00 Build 0)  -->
<svg version="1.1" id="Layer_1" xmlns="http://www.w3.org/2000/svg" xmlns:xlink="http://www.w3.org/1999/xlink" x="0px" y="0px"
	 viewBox="0 0 2342.7 2342.7" style="enable-background:new 0 0 2342.7 2342.7;" xml:space="preserve">
<style type="text/css">
	.st0{fill:#8AC341;}
	.st1{fill:none;}
</style>
<path class="st0" d="M960.8,1435.3l550.7-284.5L960.8,863L960.8,1435.3L960.8,1435.3z M1171.3,454.5c127.4,0,250.6,1.7,369.2,5.1
	c118.7,3.4,205.7,7.1,261.1,10.8l83.1,4.6c0.8,0,7.2,0.6,19.3,1.7c12.2,1.1,20.8,2.3,26.2,3.4c5.3,1.1,14.2,2.8,26.7,5.1
	c12.5,2.3,23.3,5.3,32.4,9.1c9.1,3.8,19.7,8.8,31.9,14.8c12.2,6,23.9,13.4,35.3,22.2c11.4,8.8,22.4,18.8,33,30.2
	c4.6,4.6,10.5,11.6,17.6,21c7.2,9.4,18.2,31.6,33,66.6c14.8,34.9,24.8,73.2,30.2,114.9c6,48.6,10.8,100.4,14.2,155.3
	c3.4,55,5.5,98.1,6.3,129.1v200.3c0.8,110-6,219.9-20.5,330c-5.3,41.8-14.8,79.4-28.4,113.2c-13.7,33.8-25.8,57.1-36.4,70
	l-15.9,19.3c-10.6,11.4-21.6,21.4-33,30.2c-11.4,8.8-23.1,15.9-35.3,21.6c-12.2,5.7-22.8,10.5-31.9,14.2s-19.9,6.8-32.4,9.1
	c-12.5,2.3-21.6,4-27.3,5.1c-5.7,1.1-14.5,2.3-26.2,3.4c-11.7,1.1-18,1.7-18.8,1.7c-190.4,14.5-428.2,21.6-713.4,21.6
	c-157-1.5-293.3-4-409.1-7.4c-115.7-3.4-191.7-6.3-228.1-8.5l-55.8-4.6l-41-4.6c-27.3-3.8-48-7.6-62-11.4c-14-3.8-33.3-11.7-58-23.9
	c-24.7-12.2-46.1-27.6-64.3-46.7c-4.6-4.6-10.5-11.6-17.6-21s-18.2-31.6-33-66.6s-24.8-73.2-30.2-114.9
	c-6-48.6-10.8-100.4-14.2-155.3s-5.5-98.1-6.3-129.1V1094c-0.8-110,6-219.9,20.5-330c5.3-41.8,14.8-79.4,28.4-113.2
	c13.7-33.8,25.8-57.1,36.4-70l15.9-19.3c10.6-11.4,21.6-21.4,33-30.2c11.4-8.8,23.1-16.2,35.3-22.2s22.8-11,31.9-14.8
	c9.1-3.8,19.9-6.8,32.4-9.1c12.5-2.3,21.4-4,26.7-5.1s14-2.3,26.2-3.4c12.2-1.1,18.5-1.7,19.3-1.7
	C648.4,461.3,886.2,454.5,1171.3,454.5z"/>
<rect class="st1" width="2342.7" height="2342.7"/>
</svg>
