<svg id="Layer_1" data-name="Layer 1" xmlns="http://www.w3.org/2000/svg" width="2342.66" height="2342.66" viewBox="0 0 2342.66 2342.66"><defs><style>.cls-1{fill:#fff;}.cls-2{fill:none;}</style></defs><title>social-twitter</title><path class="cls-1" d="M1959.33,683.33a676.83,676.83,0,0,1-162,167q1,14,1,42,0,130-38,259.5t-115.5,248.5a976.86,976.86,0,0,1-184.5,210.5q-107,91.5-258,146t-323,54.5q-271,0-496-145a691.32,691.32,0,0,0,78,4q225,0,401-138-105-2-188-64.5t-114-159.5a409.19,409.19,0,0,0,61,5,334.15,334.15,0,0,0,85-11q-112-23-185.5-111.5t-73.5-205.5v-4a320.44,320.44,0,0,0,146,41q-66-44-105-115t-39-154q0-88,44-163,121,149,294.5,238.5t371.5,99.5a358.78,358.78,0,0,1-8-74q0-134,94.5-228.5t228.5-94.5q140,0,236,102a633.33,633.33,0,0,0,205-78q-37,115-142,178Q1866.33,723.33,1959.33,683.33Z"/><rect class="cls-2" width="2342.66" height="2342.66"/></svg>