<svg id="Layer_1" data-name="Layer 1" xmlns="http://www.w3.org/2000/svg" width="2342.66" height="2342.66" viewBox="0 0 2342.66 2342.66"><defs><style>.cls-1{fill:none;}.cls-2{fill:#fff;}</style></defs><title>social-instagram</title><rect class="cls-1" width="2342.66" height="2342.66"/><path class="cls-2" d="M1427.33,1171.33q0-106-75-181t-181-75q-106,0-181,75t-75,181q0,106,75,181t181,75q106,0,181-75T1427.33,1171.33Zm138,0q0,164-115,279t-279,115q-164,0-279-115t-115-279q0-164,115-279t279-115q164,0,279,115T1565.33,1171.33Zm108-410q0,38-27,65t-65,27q-38,0-65-27t-27-65q0-38,27-65t65-27q38,0,65,27T1673.33,761.33Zm-502-220q-7,0-76.5-.5t-105.5,0q-36,.5-96.5,3t-103,10q-42.5,7.5-71.5,18.5a261.82,261.82,0,0,0-146,146q-11,29-18.5,71.5t-10,103q-2.5,60.5-3,96.5t0,105.5q.5,69.5.5,76.5t-.5,76.5q-.5,69.5,0,105.5t3,96.5q2.5,60.5,10,103t18.5,71.5a261.82,261.82,0,0,0,146,146q29,11,71.5,18.5t103,10q60.5,2.5,96.5,3t105.5,0q69.5-.5,76.5-.5t76.5.5q69.5.5,105.5,0t96.5-3q60.5-2.5,103-10t71.5-18.5a261.82,261.82,0,0,0,146-146q11-29,18.5-71.5t10-103q2.5-60.5,3-96.5t0-105.5q-.5-69.5-.5-76.5t.5-76.5q.5-69.5,0-105.5t-3-96.5q-2.5-60.5-10-103t-18.5-71.5a261.82,261.82,0,0,0-146-146q-29-11-71.5-18.5t-103-10q-60.5-2.5-96.5-3t-105.5,0Q1178.33,541.33,1171.33,541.33Zm768,630q0,229-5,317-10,208-124,322t-322,124q-88,5-317,5t-317-5q-208-10-322-124t-124-322q-5-88-5-317t5-317q10-208,124-322t322-124q88-5,317-5t317,5q208,10,322,124t124,322Q1939.33,942.33,1939.33,1171.33Z"/></svg>