<?xml version="1.0" encoding="utf-8"?>
<!-- Generator: Adobe Illustrator 20.1.0, SVG Export Plug-In . SVG Version: 6.00 Build 0)  -->
<svg version="1.1" id="Layer_1" xmlns="http://www.w3.org/2000/svg" xmlns:xlink="http://www.w3.org/1999/xlink" x="0px" y="0px"
	 viewBox="0 0 2342.7 2342.7" style="enable-background:new 0 0 2342.7 2342.7;" xml:space="preserve">
<style type="text/css">
	.st0{fill:none;}
	.st1{fill:#8AC341;}
</style>
<title>social-instagram</title>
<rect class="st0" width="2342.7" height="2342.7"/>
<path class="st1" d="M1427.3,1171.3c0-70.7-25-131-75-181c-50-50-110.3-75-181-75c-70.7,0-131,25-181,75c-50,50-75,110.3-75,181
	c0,70.7,25,131,75,181c50,50,110.3,75,181,75c70.7,0,131-25,181-75S1427.3,1242,1427.3,1171.3z M1565.3,1171.3
	c0,109.3-38.3,202.3-115,279c-76.7,76.7-169.7,115-279,115c-109.3,0-202.3-38.3-279-115c-76.7-76.7-115-169.7-115-279
	c0-109.3,38.3-202.3,115-279s169.7-115,279-115c109.3,0,202.3,38.3,279,115C1527,969,1565.3,1062,1565.3,1171.3z M1673.3,761.3
	c0,25.3-9,47-27,65c-18,18-39.7,27-65,27c-25.3,0-47-9-65-27c-18-18-27-39.7-27-65c0-25.3,9-47,27-65c18-18,39.7-27,65-27
	c25.3,0,47,9,65,27C1664.3,714.3,1673.3,736,1673.3,761.3L1673.3,761.3z M1171.3,541.3c-4.7,0-30.2-0.2-76.5-0.5
	c-46.3-0.3-81.5-0.3-105.5,0c-24,0.3-56.2,1.3-96.5,3c-40.3,1.7-74.7,5-103,10c-28.3,5-52.2,11.2-71.5,18.5
	c-66.6,26.6-119.4,79.4-146,146c-7.3,19.3-13.5,43.2-18.5,71.5c-5,28.3-8.3,62.7-10,103c-1.7,40.3-2.7,72.5-3,96.5
	c-0.3,24-0.3,59.2,0,105.5c0.3,46.3,0.5,71.8,0.5,76.5c0,4.7-0.2,30.2-0.5,76.5c-0.3,46.3-0.3,81.5,0,105.5s1.3,56.2,3,96.5
	c1.7,40.3,5,74.7,10,103c5,28.3,11.2,52.2,18.5,71.5c26.6,66.6,79.4,119.4,146,146c19.3,7.3,43.2,13.5,71.5,18.5
	c28.3,5,62.7,8.3,103,10c40.3,1.7,72.5,2.7,96.5,3c24,0.3,59.2,0.3,105.5,0c46.3-0.3,71.8-0.5,76.5-0.5c4.7,0,30.2,0.2,76.5,0.5
	c46.3,0.3,81.5,0.3,105.5,0c24-0.3,56.2-1.3,96.5-3c40.3-1.7,74.7-5,103-10c28.3-5,52.2-11.2,71.5-18.5
	c66.6-26.6,119.4-79.4,146-146c7.3-19.3,13.5-43.2,18.5-71.5c5-28.3,8.3-62.7,10-103c1.7-40.3,2.7-72.5,3-96.5
	c0.3-24,0.3-59.2,0-105.5c-0.3-46.3-0.5-71.8-0.5-76.5c0-4.7,0.2-30.2,0.5-76.5c0.3-46.3,0.3-81.5,0-105.5c-0.3-24-1.3-56.2-3-96.5
	c-1.7-40.3-5-74.7-10-103c-5-28.3-11.2-52.2-18.5-71.5c-26.6-66.6-79.4-119.4-146-146c-19.3-7.3-43.2-13.5-71.5-18.5
	c-28.3-5-62.7-8.3-103-10c-40.3-1.7-72.5-2.7-96.5-3s-59.2-0.3-105.5,0C1201.5,541.2,1176,541.3,1171.3,541.3L1171.3,541.3z
	 M1939.3,1171.3c0,152.7-1.7,258.3-5,317c-6.7,138.7-48,246-124,322s-183.3,117.3-322,124c-58.7,3.3-164.3,5-317,5s-258.3-1.7-317-5
	c-138.7-6.7-246-48-322-124s-117.3-183.3-124-322c-3.3-58.7-5-164.3-5-317s1.7-258.3,5-317c6.7-138.7,48-246,124-322
	s183.3-117.3,322-124c58.7-3.3,164.3-5,317-5s258.3,1.7,317,5c138.7,6.7,246,48,322,124s117.3,183.3,124,322
	C1937.7,913,1939.3,1018.7,1939.3,1171.3z"/>
</svg>
