<?xml version="1.0" encoding="utf-8"?>
<!-- Generator: Adobe Illustrator 20.1.0, SVG Export Plug-In . SVG Version: 6.00 Build 0)  -->
<svg version="1.1" id="Layer_1" xmlns="http://www.w3.org/2000/svg" xmlns:xlink="http://www.w3.org/1999/xlink" x="0px" y="0px"
	 viewBox="0 0 2342.7 2342.7" style="enable-background:new 0 0 2342.7 2342.7;" xml:space="preserve">
<style type="text/css">
	.st0{fill:none;}
	.st1{fill:#8AC341;}
</style>
<title>social-facebook-square</title>
<rect class="st0" width="2342.7" height="2342.7"/>
<path class="st1" d="M1651.3,403.3c79.3,0,147.2,28.2,203.5,84.5c56.3,56.3,84.5,124.2,84.5,203.5v960c0,79.3-28.2,147.2-84.5,203.5
	c-56.3,56.3-124.2,84.5-203.5,84.5h-188v-595h199l30-232h-229v-148c0-37.3,7.8-65.3,23.5-84c15.7-18.7,46.2-28,91.5-28l122-1v-207
	c-42-6-101.3-9-178-9c-90.7,0-163.2,26.7-217.5,80c-54.3,53.3-81.5,128.7-81.5,226v171h-200v232h200v595h-532
	c-79.3,0-147.2-28.2-203.5-84.5c-56.3-56.3-84.5-124.2-84.5-203.5v-960c0-79.3,28.2-147.2,84.5-203.5s124.2-84.5,203.5-84.5
	L1651.3,403.3z"/>
</svg>
