<?xml version="1.0" encoding="utf-8"?>
<!-- Generator: Adobe Illustrator 20.1.0, SVG Export Plug-In . SVG Version: 6.00 Build 0)  -->
<svg version="1.1" id="Layer_1" xmlns="http://www.w3.org/2000/svg" xmlns:xlink="http://www.w3.org/1999/xlink" x="0px" y="0px"
	 viewBox="0 0 2342.7 2342.7" style="enable-background:new 0 0 2342.7 2342.7;" xml:space="preserve">
<style type="text/css">
	.st0{fill:#8AC341;}
	.st1{fill:none;}
</style>
<title>social-twitter</title>
<path class="st0" d="M1959.3,683.3c-44,64.6-98.8,121.1-162,167c0.7,9.3,1,23.3,1,42c0,86.7-12.7,173.2-38,259.5
	c-25.3,86.3-63.8,169.2-115.5,248.5c-51.1,78.7-113.2,149.6-184.5,210.5c-71.3,61-157.3,109.7-258,146
	c-100.7,36.3-208.3,54.5-323,54.5c-180.7,0-346-48.3-496-145c25.9,2.8,51.9,4.1,78,4c150,0,283.7-46,401-138
	c-70-1.3-132.7-22.8-188-64.5s-93.3-94.8-114-159.5c20.2,3.2,40.6,4.9,61,5c28.7,0,57.3-3.7,85-11
	c-74.7-15.3-136.5-52.5-185.5-111.5s-73.5-127.5-73.5-205.5v-4c44.7,25.2,94.8,39.2,146,41c-44-29.3-79-67.7-105-115
	s-39-98.7-39-154c0-58.7,14.7-113,44-163c80.7,99.3,178.8,178.8,294.5,238.5s239.5,92.8,371.5,99.5c-5.2-24.3-7.9-49.1-8-74
	c0-89.3,31.5-165.5,94.5-228.5s139.2-94.5,228.5-94.5c93.3,0,172,34,236,102c72.3-13.9,141.7-40.3,205-78c-24.7,76.7-72,136-142,178
	C1835.3,726.7,1897.3,710,1959.3,683.3z"/>
<rect class="st1" width="2342.7" height="2342.7"/>
</svg>
