<svg xmlns="http://www.w3.org/2000/svg" version="1.1" xmlns:xlink="http://www.w3.org/1999/xlink"
    preserveAspectRatio="none" x="0px" y="0px" width="89px" height="96px" viewBox="0 0 89 96">
    <defs>
        <g id="Layer0_0_MEMBER_0_FILL">
            <path fill="#178387" stroke="none"
                d="
M 61.95 17.05
L 61.95 17
Q 60.64765625 15.5990234375 58.8 15.6
L 54.85 15.6 54.85 15.55
Q 54.8529296875 12.4626953125 52.8 10.15
L 52.8 10.2
Q 50.7978515625 7.89765625 47.85 7.9 44.97890625 7.8888671875 42.85 10.15
L 42.85 10.2
Q 40.9091796875 12.47734375 40.9 15.55
L 40.9 15.6 36.55 15.6
Q 34.75234375 15.5990234375 33.45 17
L 33.45 17.05
Q 32.2689453125 18.411328125 32.25 20.3
L 32.25 20.9 26.05 20.9
Q 17.3177734375 20.84921875 17.3 30.3
L 17.3 78.5
Q 17.317578125 88.0591796875 26.05 88
L 69.5 88
Q 78.182421875 88.07890625 78.2 78.5
L 78.2 30.3
Q 78.182421875 20.8400390625 69.5 20.9
L 63.15 20.45 63.15 20.3
Q 63.1427734375 19.608203125 62.95 18.95 62.6884765625 17.9013671875 61.95 17.05 Z" />
        </g>

        <g id="Layer0_0_MEMBER_1_FILL">
            <path fill="#FFFFFF" stroke="none"
                d="
M 45.5 70.5
Q 45.4216796875 70.699609375 45.45 70.9 45.5103515625 71.1078125 45.65 71.2 45.85 71.340625 46.05 71.3 47.028125 71.073828125 47.7 71.15
L 47.7 71.15
Q 48.6142578125 71.3091796875 49.75 71
L 49.75 71.05
Q 50.75859375 70.823046875 51.95 71.05 53.3236328125 71.3123046875 54.15 71.2
L 54.2 71.2
Q 54.9884765625 71.14921875 55.8 71.1 56.7158203125 71.1 57.85 71.1 58.9919921875 71.105859375 59.85 71.3 60.0501953125 71.340625 60.2 71.2 60.40234375 71.1076171875 60.45 70.9 60.4908203125 70.6994140625 60.35 70.5 60.2580078125 70.3478515625 60.05 70.3 59.1076171875 70.0939453125 57.85 70.1 56.7 70.1 55.8 70.1
L 55.75 70.1
Q 54.925 70.1498046875 54.1 70.2
L 54.1 70.2
Q 53.3564453125 70.283984375 52.15 70.05 50.74140625 69.789453125 49.55 70.05
L 49.5 70.05
Q 48.6013671875 70.2869140625 47.9 70.15
L 47.85 70.15
Q 47.05390625 70.0427734375 45.85 70.3 45.641796875 70.360546875 45.5 70.5
M 54.05 57.1
Q 52.85 57.1 51.9 57.1 50.9255859375 57.0986328125 49.9 57.2 49.0013671875 57.2939453125 48.15 57.2
L 48.1 57.2
Q 47.2255859375 57.15 45.95 57.1 45.7609375 57.0880859375 45.6 57.2 45.4529296875 57.3671875 45.45 57.55 45.437890625 57.7892578125 45.55 57.95 45.7169921875 58.0966796875 45.9 58.1 47.1744140625 58.15 48.05 58.2 49.0115234375 58.3046875 50 58.2 50.97421875 58.101171875 51.9 58.1 52.85 58.1 54.05 58.1 55.3 58.1 55.95 58.1 56.1552734375 58.0982421875 56.3 57.95 56.4482421875 57.8052734375 56.45 57.6 56.4482421875 57.3947265625 56.3 57.25 56.1552734375 57.1017578125 55.95 57.1 55.3 57.1 54.05 57.1
M 65.1 70.45
Q 64.9546875 70.5416015625 64.65 70.45 64.0857421875 70.3244140625 63.25 70.05
L 63.2 70.05
Q 62.2826171875 69.8234375 61.05 70.35 60.8564453125 70.4326171875 60.75 70.6 60.7080078125 70.812890625 60.8 71 60.8826171875 71.194140625 61.05 71.25 61.2623046875 71.3419921875 61.45 71.25 62.3017578125 70.8830078125 62.95 71 63.8140625 71.2755859375 64.4 71.4 65.34765625 71.658984375 65.8 71.15 65.9482421875 71.0052734375 65.95 70.8 65.9482421875 70.5947265625 65.8 70.45 65.6552734375 70.3017578125 65.45 70.3 65.2447265625 70.3017578125 65.1 70.45
M 65.55 57.1
Q 65.3625 57.0625 65.2 57.15 65.27265625 57.1083984375 65.2 57.05 65.174609375 57.0609375 65.15 57.05 64.732421875 56.8306640625 63.35 57 62.3123046875 57.1349609375 61.25 56.9
L 61.25 56.9
Q 60.0765625 56.6505859375 58.85 56.75
L 58.8 56.75
Q 57.6224609375 56.909765625 57 57.1 56.798828125 57.190234375 56.7 57.35 56.608203125 57.5572265625 56.65 57.75 56.7400390625 57.9513671875 56.9 58.05 57.10703125 58.141796875 57.3 58.05 57.87734375 57.8900390625 58.95 57.75 60.03515625 57.6646484375 61.05 57.9 62.2875 58.1650390625 63.5 58 64.4681640625 57.869140625 64.75 57.95 65.414453125 58.32890625 65.7 58 65.9029296875 57.9060546875 65.95 57.7 65.9904296875 57.49765625 65.85 57.3 65.7560546875 57.1466796875 65.55 57.1
M 36.25 67.3
Q 36.1052734375 67.1517578125 35.9 67.15
L 31.4 67.15
Q 31.1947265625 67.1517578125 31.05 67.3 30.9017578125 67.4447265625 30.9 67.65
L 30.9 72.15
Q 30.9017578125 72.3552734375 31.05 72.5 31.1947265625 72.6482421875 31.4 72.65
L 35.9 72.65
Q 36.1052734375 72.6482421875 36.25 72.5 36.3982421875 72.3552734375 36.4 72.15
L 36.4 67.65
Q 36.3982421875 67.4447265625 36.25 67.3
M 31.9 68.15
L 35.4 68.15 35.4 71.65 31.9 71.65 31.9 68.15
M 36.4 54
Q 36.3982421875 53.7947265625 36.25 53.65 36.1052734375 53.5017578125 35.9 53.5
L 31.4 53.5
Q 31.1947265625 53.5017578125 31.05 53.65 30.9017578125 53.7947265625 30.9 54
L 30.9 58.5
Q 30.9017578125 58.7052734375 31.05 58.85 31.1947265625 58.9982421875 31.4 59
L 35.9 59
Q 36.1052734375 58.9982421875 36.25 58.85 36.3982421875 58.7052734375 36.4 58.5
L 36.4 54
M 31.9 54.5
L 35.4 54.5 35.4 58 31.9 58 31.9 54.5
M 30.2 39.2
L 28.1 41.35 33.3 46.45 33.3 46.45 41.5 38.25 39.4 36.1 33.3 42.2 30.2 39.2
M 65.3 43.95
Q 65.1611328125 44.005078125 64.75 44
L 64.7 44
Q 64.225 44.046484375 63.25 44 62.2625 43.949609375 61.25 43.95 61.0447265625 43.9517578125 60.9 44.1 60.7517578125 44.2447265625 60.75 44.45 60.7517578125 44.6552734375 60.9 44.8 61.0447265625 44.9482421875 61.25 44.95 62.2375 44.9501953125 63.2 45 64.2748046875 45.053515625 64.8 45 65.348828125 44.9919921875 65.55 44.9 65.7720703125 44.87578125 65.85 44.7 65.9787109375 44.5236328125 65.9 44.3 65.876171875 44.1283203125 65.7 44 65.5232421875 43.921484375 65.3 43.95
M 45.65 44
Q 45.49765625 44.1423828125 45.45 44.35 45.4091796875 44.5505859375 45.5 44.7 45.6419921875 44.9021484375 45.85 44.95 46.7615234375 45.150390625 47.75 45.3 48.8603515625 45.4646484375 50 45.25 50.9712890625 45.0615234375 51.85 45.15 52.9248046875 45.2611328125 54 45.05 54.9646484375 44.9005859375 56 44.85 57.12421875 44.8498046875 58.05 44.8 58.9625 44.75859375 59.85 44.95 60.0515625 44.9904296875 60.2 44.85 60.4029296875 44.756640625 60.45 44.55 60.490625 44.3484375 60.35 44.15 60.256640625 43.997265625 60.05 43.95 59.0375 43.7412109375 58 43.8 57.0865234375 43.849609375 56 43.85
L 55.95 43.85
Q 54.848828125 43.8986328125 53.8 44.05
L 53.8 44.05
Q 52.875 44.238671875 51.95 44.15 50.928515625 44.03828125 49.8 44.25 48.839453125 44.43515625 47.9 44.3 46.93828125 44.1494140625 46.05 43.95 45.8498046875 43.909375 45.65 44
M 65.75 20.9
Q 65.133984375 20.9052734375 64.7 21.35 64.2552734375 21.783984375 64.25 22.4 64.2552734375 23.016015625 64.7 23.45 65.133984375 23.8947265625 65.75 23.9
L 69.5 23.9
Q 75.19140625 23.9697265625 75.2 30.3
L 75.2 78.45
Q 75.19140625 84.9220703125 69.5 85
L 26.1 85
Q 20.30859375 84.9310546875 20.3 78.45
L 20.3 30.3
Q 20.30859375 23.9607421875 26.1 23.9
L 29.75 23.9
Q 30.366015625 23.8947265625 30.8 23.45 31.2447265625 23.016015625 31.25 22.4 31.2447265625 21.783984375 30.8 21.35 30.366015625 20.9052734375 29.75 20.9
L 26.05 20.9
Q 17.3177734375 20.84921875 17.3 30.3
L 17.3 78.5
Q 17.317578125 88.0591796875 26.05 88
L 69.5 88
Q 78.182421875 88.07890625 78.2 78.5
L 78.2 30.3
Q 78.182421875 20.8400390625 69.5 20.9
L 65.75 20.9
M 61.95 17.05
L 61.95 17
Q 60.64765625 15.5990234375 58.8 15.6
L 54.85 15.6 54.85 15.55
Q 54.8529296875 12.4626953125 52.8 10.15
L 52.8 10.2
Q 50.7978515625 7.89765625 47.85 7.9 44.97890625 7.8888671875 42.85 10.15
L 42.85 10.2
Q 40.9091796875 12.47734375 40.9 15.55
L 40.9 15.6 36.55 15.6
Q 34.75234375 15.5990234375 33.45 17
L 33.45 17.05
Q 32.2689453125 18.411328125 32.25 20.3
L 32.25 23.55
Q 32.269140625 25.4884765625 33.45 26.85
L 33.45 26.85
Q 34.75234375 28.3009765625 36.55 28.3
L 58.8 28.3
Q 60.64765625 28.3009765625 61.95 26.85
L 61.95 26.85
Q 63.1306640625 25.4884765625 63.15 23.55
L 63.15 20.3
Q 63.130859375 18.411328125 61.95 17.05
M 61.15 20.3
L 61.15 23.55
Q 61.1533203125 24.7296875 60.45 25.55
L 60.45 25.5
Q 59.7615234375 26.2892578125 58.8 26.3
L 36.6 26.3
Q 35.6384765625 26.2892578125 34.95 25.5
L 34.95 25.55
Q 34.246484375 24.7296875 34.25 23.55
L 34.25 20.3
Q 34.246484375 19.1703125 34.95 18.35
L 34.95 18.35
Q 35.6384765625 17.6107421875 36.6 17.6
L 58.8 17.6
Q 59.7615234375 17.6107421875 60.45 18.35
L 60.45 18.35
Q 61.1533203125 19.1703125 61.15 20.3
M 51.3 11.5
L 51.3 11.5
Q 52.8470703125 13.237109375 52.85 15.55
L 52.85 15.6 42.9 15.6 42.9 15.55
Q 42.890625 13.2408203125 44.3 11.5
L 44.35 11.5
Q 45.8375 9.9109375 47.85 9.9 49.901953125 9.9021484375 51.3 11.5 Z" />
        </g>

        <path id="Layer0_0_MEMBER_0_1_STROKES" stroke="#178387" stroke-width="13"
            stroke-linejoin="round" stroke-linecap="round" fill="none"
            d="
M 58.32657165527344 18.96698760986328
Q 57.13193516731262 17.65894306898117 55.460017395019534 17.6598388671875
L 51.813760375976564 17.6598388671875 51.813760375976564 17.61397399902344
Q 51.81644777059555 14.781997549533843 49.93330078125 12.683500671386719
L 49.93330078125 12.706433105468749
Q 48.096735298633575 10.594499254226685 45.392678833007814 10.596649169921875 42.75903210639954 10.58643707036972 40.829124450683594 12.683500671386719
L 40.806192016601564 12.706433105468749
Q 39.02588266134262 14.795434522628783 39.017462158203124 17.61397399902344
L 39.017462158203124 17.6598388671875 35.05015106201172 17.6598388671875
Q 33.37823328971863 17.65894306898117 32.183596801757815 18.96698760986328
L 32.183596801757815 18.989920043945315
Q 31.100218451023103 20.238662743568423 31.082839965820312 21.994068908691407
L 31.082839965820312 22.521514892578125 25.418528747558593 22.521514892578125
Q 17.38554791212082 22.474933385849 17.369244384765626 31.144110107421877
L 17.369244384765626 75.35784301757812
Q 17.385368752479554 84.12645334005356 25.418528747558593 84.07216796875
L 65.25216674804688 84.07216796875
Q 73.21652944087982 84.14454846382141 73.23265380859375 75.35784301757812
L 73.23265380859375 31.144110107421877
Q 73.21652944087982 22.466512882709505 65.27509918212891 22.521514892578125
L 59.427328491210936 22.131663513183597 59.427328491210936 21.994068908691407
Q 59.4206995844841 21.336553025245667 59.26680145263672 20.75571746826172 59.00397425889969 19.770876920223238 58.32657165527344 18.989920043945315
L 58.32657165527344 18.96698760986328 Z" />
    </defs>

    <g transform="matrix( 0.91729736328125, 0, 0, 0.91729736328125, 1.5,3.35) ">
        <use xlink:href="#Layer0_0_MEMBER_0_FILL" />

        <use xlink:href="#Layer0_0_MEMBER_0_1_STROKES"
            transform="matrix( 1.09014892578125, 0, 0, 1.09014892578125, -1.6,-3.65) " />
    </g>

    <g transform="matrix( 0.91729736328125, 0, 0, 0.91729736328125, 1.5,3.35) ">
        <use xlink:href="#Layer0_0_MEMBER_1_FILL" />
    </g>
</svg>