<svg xmlns="http://www.w3.org/2000/svg" version="1.1" xmlns:xlink="http://www.w3.org/1999/xlink"
    preserveAspectRatio="none" x="0px" y="0px" width="281px" height="192px" viewBox="0 0 281 192">
    <defs>
        <g id="Layer0_0_FILL">
            <path fill="#ffff" stroke="none"
                d="
M 217.6 164.9
Q 215.35 129 211.5 122.85 201.95 107.95 183.6 107.5 166.25 120.85 144.15 120.75 144.1 120.75 144.05 120.75 121.9 120.85 104.6 107.45 86.25 107.9 76.65 122.85 73 128.65 67.7 164.35 82.5 182 125.2 190.7 167.8 199.35 217.6 164.9
M 166.35 41.15
L 166.3 41.15
Q 157.05 30.7 144.15 30.45 144.05 30.45 144 30.45 131.05 30.7 121.85 41.15 114.9 49.15 112.8 59.35 112.75 59.35 112.75 59.45 112.05 63.25 111.95 67.3 111.95 67.65 111.9 68.05 111.85 68.3 111.85 68.7 111.85 71.15 112.1 73.55
L 112.15 73.65
Q 113.45 86.5 121.85 96.1 131.05 106.65 144.05 106.8
L 144.15 106.8
Q 157.1 106.65 166.35 96.1 174.75 86.5 176 73.65
L 176 73.5
Q 176.15 72.5 176.2 71.5 176.25 70.1 176.25 68.7 176.25 66.954296875 176.15 65.35 175.2 51.4 166.35 41.15
M 104 80.25
Q 94.55 69.75 89.55 69.65 88.65 69.65 87.85 69.65 77 78.85 62.75 78.75 48.55 78.85 37.7 69.65 36.8 69.65 35.95 69.65 19.85 69.9 11.5 83.15 7.1 90.2 0 125 6.3 140.15 22.25 144.35 38.25 148.5 50.95 146.35 57.15 145.3 61.8 144 65.6 123 68.85 118.2 68.9 118.05 69 117.9 80.4 100.25 101.45 98.55 106.05 97.35 111.2 97.2 105.95 89.45 104 80.25
M 90.95 30.4
Q 90.15 18.3 82.4 9.4 74.25 0.1 62.75 0 51.25 0.1 43.1 9.4 37.05 16.35 35.2 25.35 34.65 28.55 34.5 32 34.45 32.6 34.45 33.2 34.45 35.3 34.65 37.4 35.8 48.65 43.1 56.95 51.25 66.3 62.75 66.4 74.25 66.3 82.4 56.95 89.75 48.65 90.8 37.4 90.9 36.5 90.95 35.65 91 34.4 91 33.2 91 31.8 90.95 30.4
M 275.85 83.15
Q 267.5 69.9 251.4 69.65 250.5 69.65 249.7 69.65 238.8 78.85 224.55 78.8 210.35 78.85 199.5 69.65 198.65 69.65 197.75 69.65 193.1 69.75 184.45 79 182.55 89 176.95 97.25 181.65 97.45 185.85 98.55 207.55 99.85 219.2 117.9
L 219.2 118.05
Q 222.4 122.3 224.55 139.8 235.25 141.5 242.45 141.95 252.35 142.55 266.45 140 280.55 137.45 281.9 137.6 280.25 90.25 275.85 83.15
M 252.6 37.4
Q 252.75 36.5 252.8 35.65 252.85 34.45 252.85 33.25 252.85 31.8 252.75 30.45 251.95 18.3 244.2 9.4 236.05 0.15 224.55 0.05 213.05 0.15 204.9 9.4 198.85 16.4 197.05 25.35 196.45 28.6 196.3 32.05 196.3 32.6 196.3 33.25 196.3 35.35 196.5 37.4 197.65 48.65 204.9 57 213.05 66.3 224.55 66.45 236.05 66.3 244.2 57 251.55 48.65 252.6 37.4 Z" />
        </g>
    </defs>

    <g transform="matrix( 1, 0, 0, 1, 0,0) ">
        <use xlink:href="#Layer0_0_FILL" />
    </g>
</svg>