<svg xmlns="http://www.w3.org/2000/svg" version="1.1" xmlns:xlink="http://www.w3.org/1999/xlink"
    preserveAspectRatio="none" x="0px" y="0px" width="439px" height="437px" viewBox="0 0 439 437">
    <defs>
        <g id="user-icon">
            <path id="user-icon-fill" style="transition: all 0.5s" fill="#71ada9" stroke="none"
                d="
M 346.1 40.45
L 346.05 40.45
Q 290.79609375 0.0537109375 218.75 0 128.1361328125 -0.0033203125 64 64
L 64 64
Q 19.214453125 108.871875 5.75 166.75
L 5.75 166.7
Q 3.8072265625 175.0162109375 2.5 183.6 1.1560546875 192.802734375 0.5 202.35
L 0.5 202.35
Q 0 210.457421875 0 218.75 -0.0052734375 309.3119140625 64 373.4
L 64 373.45
Q 128.1361328125 437.50625 218.75 437.5 309.3654296875 437.4947265625 373.4 373.4
L 373.45 373.4
Q 437.50703125 309.3126953125 437.5 218.75 437.49921875 200.64765625 434.95 183.65 433.70546875 175.0658203125 431.8 166.8
L 431.75 166.75
Q 418.327734375 108.858203125 373.4 64
L 373.4 64
Q 360.316796875 50.90546875 346.1 40.45
M 356.45 80.95
L 356.45 81
Q 396.371484375 120.841015625 408.4 172.2
L 408.4 172.2
Q 410.09453125 179.5337890625 411.2 187.15
L 411.2 187.15
Q 413.5005859375 202.4650390625 413.5 218.75 413.4935546875 299.3861328125 356.45 356.45
L 356.45 356.45
Q 299.434375 413.505078125 218.75 413.5 138.080859375 413.4935546875 81 356.45
L 80.95 356.45
Q 24.005078125 299.370703125 24 218.75 23.9998046875 211.2423828125 24.45 203.9 25.045703125 195.38515625 26.25 187.15
L 26.25 187.15
Q 27.3953125 179.571875 29.1 172.25
L 29.1 172.2
Q 41.1814453125 120.84453125 80.95 81
L 81 80.95
Q 138.080859375 24.003125 218.75 24 282.78515625 23.9462890625 331.9 59.8
L 331.9 59.85
Q 344.69609375 69.2072265625 356.45 80.95
M 283 146.5
Q 281.15 122.05 263.55 104.2 244.9 85.55 218.7 85.3 192.5 85.55 173.9 104.2 160.05 118.2 155.95 136.25 154.55 142.75 154.3 149.75 154.2 150.85 154.2 152.15 154.2 156.4 154.7 160.55 157.25 183.15 173.9 199.95 192.5 218.7 218.7 218.9 244.9 218.7 263.55 199.95 280.25 183.15 282.75 160.55 282.95 158.75 283.1 157 283.2 154.55 283.2 152.15 283.2 149.25 283 146.5
M 349.5 278.25
Q 345.7 266.8 335.65 252.65 316.7 226 279.9 225.5 277.9 225.45 276 225.45 251.2 244 218.75 243.8 186.3 244 161.55 225.45 159.6 225.45 157.55 225.5 120.85 226 101.85 252.65 91.75 266.8 88.05 278.25 97.55 293.9 111.4 307.75 155.9 352.2 218.75 352.2 281.6 352.2 326.05 307.75 339.9 293.9 349.5 278.25 Z" />
        </g>

        <g id="logged-badge">
            <path id="logged-badge-fill
" fill="#52B448" stroke="none"
                d="
M 4100.85 260.15
Q 4022.35 181.65 3911.3 181.65 3800.25 181.65 3721.75 260.15 3643.25 338.65 3643.25 449.7 3643.25 560.75 3721.75 639.25 3800.25 717.75 3911.3 717.75 4022.35 717.75 4100.85 639.25 4179.35 560.75 4179.35 449.7 4179.35 338.65 4100.85 260.15 Z" />


            <path id="logged-badge-line" stroke="#0000" stroke-width="20" stroke-linejoin="round"
                stroke-linecap="round" fill="none"
                d="
M 422.923804473877 353.3117111206055
Q 422.923804473877 374.4775672912598 407.96189804077153 389.43947372436526 392.99999160766606 404.4013801574707 371.8341354370118 404.4013801574707 350.66827926635744 404.4013801574707 335.706372833252 389.43947372436526 320.7444664001465 374.4775672912598 320.7444664001465 353.3117111206055 320.7444664001465 332.1458549499512 335.706372833252 317.1839485168457 350.66827926635744 302.22204208374023 371.8341354370118 302.22204208374023 392.99999160766606 302.22204208374023 407.96189804077153 317.1839485168457 422.923804473877 332.1458549499512 422.923804473877 353.3117111206055 Z" />
        </g>
    </defs>

    <g transform="matrix( 0.9707489013671875, 0, 0, 0.9707489013671875, 7.2,6.4) ">
        <use xlink:href="#user-icon" />
    </g>

    <g transform="matrix( 0.1905975341796875, 0, 0, 0.1905975341796875, -373.65,267.6) ">
        <use xlink:href="#logged-badge" />

        <use xlink:href="#logged-badge-line"
            transform="matrix( 5.24664306640625, 0, 0, 5.24664306640625, 1960.4,-1404) " />
    </g>
</svg>